<?xml version="1.0" encoding="utf-8"?>
<!-- Designed by Vexels.com - 2017 All Rights Reserved - https://vexels.com/terms-and-conditions/  -->

<svg version="1.1" id="Layer_1" xmlns="http://www.w3.org/2000/svg" xmlns:xlink="http://www.w3.org/1999/xlink" x="0px" y="0px"
	 width="1200px" height="1200px" viewBox="0 0 1200 1200" enable-background="new 0 0 1200 1200" xml:space="preserve">
<g>
	<path fill-rule="evenodd" clip-rule="evenodd" fill="#009D52" d="M536.719,1095.01c35.67-0.377,64.468-29.773,64.094-65.449
		c-0.369-35.675-29.781-64.463-65.456-64.089c-35.673,0.372-64.46,29.771-64.081,65.451
		C471.647,1066.588,501.044,1095.381,536.719,1095.01z"/>
	<path fill-rule="evenodd" clip-rule="evenodd" fill="#FDFDFE" d="M536.673,1090.65c33.281-0.351,60.135-27.766,59.786-61.043
		c-0.348-33.281-27.769-60.127-61.055-59.779c-33.281,0.351-60.124,27.761-59.781,61.048
		C475.973,1064.151,503.391,1091.001,536.673,1090.65z"/>
	<path fill-rule="evenodd" clip-rule="evenodd" fill="#BDCF3F" d="M536.616,1084.774c30.031-0.317,54.269-25.071,53.954-55.099
		c-0.315-30.029-25.068-54.282-55.104-53.969c-30.031,0.315-54.269,25.083-53.949,55.109
		C481.831,1060.851,506.577,1085.089,536.616,1084.774z"/>
	<path fill-rule="evenodd" clip-rule="evenodd" fill="#E2E5BF" d="M536.533,1077.412c25.976-0.274,46.943-21.684,46.669-47.665
		c-0.271-25.978-21.678-46.945-47.66-46.669c-25.976,0.266-46.943,21.679-46.669,47.66
		C489.147,1056.719,510.552,1077.68,536.533,1077.412z"/>
	<path fill-rule="evenodd" clip-rule="evenodd" fill="#FDFDFE" d="M536.476,1071.951c22.974-0.24,41.5-19.187,41.263-42.147
		c-0.245-22.968-19.166-41.495-42.14-41.255c-22.958,0.245-41.495,19.161-41.252,42.127
		C494.585,1053.634,513.516,1072.188,536.476,1071.951z"/>
	<path fill-rule="evenodd" clip-rule="evenodd" fill="#009D52" d="M536.373,1061.976c17.484-0.188,31.584-14.595,31.403-32.066
		c-0.183-17.482-14.59-31.592-32.069-31.406c-17.474,0.181-31.584,14.59-31.398,32.069
		C504.49,1048.046,518.899,1062.154,536.373,1061.976z"/>
	<path fill-rule="evenodd" clip-rule="evenodd" fill="#E2E5BF" d="M552.021,1057.046c0.111-0.026,0.041,0.121,0.132,0.119
		c0.142-0.034,0.039-0.245,0.039-0.359c0.268-0.235,0.506-0.124,0.828-0.01c0.328,0.485,0.116,1.354-0.428,1.359
		c-0.4,0.023-0.58-0.48-0.658-0.784C552.047,1057.431,551.949,1057.183,552.021,1057.046L552.021,1057.046z M535.767,1004.209
		L535.767,1004.209c-14.366,0.15-25.906,11.933-25.752,26.309c0.057,5.711,1.953,10.963,5.118,15.217
		c-0.075,0.018-0.16,0.047-0.232,0.047c-0.09,0.771-0.9,0.784-1.352,1.184c-0.072,0.418-0.614,0.699-0.526,1.189
		c0.059,0.31,0.106,0.627,0.023,0.962c-0.126,0.436-0.469,0.408-0.73,0.777c-0.204,0.268-0.578,0.557-0.913,0.748
		c-0.018,0.114-0.095,0.181-0.144,0.276c-0.186,0.095-0.47,0.178-0.825,0.126c-0.253-0.031-0.547-0.186-0.877-0.201
		c-0.83-0.016-1.821,0.369-1.873,0.954c-0.095,0.96,1.125,1.063,2.007,0.859c0.467-0.101,0.88-0.392,1.29-0.441
		c0.39,0.423,1.29,0.31,1.757,0.557c-0.175,0.016-0.531,0.021-0.536,0.335c0.328,0.175,0.57,0.041,0.787-0.155
		c0.005-0.157-0.199-0.093-0.211-0.222c0.727,0.191,1.87,0.09,2.505,0.738c0.307,0.403,0.356,1.032,0.973,1.115
		c0.444-0.134,0.647-0.715,1.05-0.758c0,0-0.008,0.077,0.036,0.072c0.08-0.015,0.194-0.098,0.286-0.093
		c0.542,0.049,0.565,0.665,0.681,1.176c0.328-0.008,0.464-0.111,0.717-0.255c0.095,0.101,0.263,0.165,0.317,0.333
		c0.157,0.01,0.163,0.036,0.312-0.005c0.408-0.665,1.047-0.867,1.697-1.248c0.144,0.044,0.124,0.015,0.286,0.01
		c0.162-0.16,0.085-0.351,0.188-0.591c0.495-0.201,0.789,0.145,1.315,0.24c-0.026,0.119,0.111,0.052,0.062,0.18
		c0.289-0.129,0.671-0.353,0.893-0.15c0.01-0.041,0.047-0.07,0.088-0.088c1.295,0.66,2.652,1.228,4.065,1.672
		c0,0.031,0,0.069,0,0.106c0.263,0.026,0.351-0.003,0.459,0.155c-0.119,0.39-0.059,0.673-0.124,0.967
		c-0.144-0.139-0.377-0.191-0.356-0.485c-0.181-0.046-0.235-0.155-0.418-0.041c-0.289-0.247-0.66-0.082-1.027-0.129
		c-0.361-0.052-0.64-0.33-0.988-0.338c-0.142,0.041-0.222,0.17-0.433,0.163c-0.003,0.093-0.018,0.157-0.077,0.214
		c-0.09,0.026-0.085-0.054-0.173-0.049c-0.139,0.284-0.604,0.217-0.717,0.516c-0.057,0.598,0.325,1.687-0.433,1.909
		c-0.021,0.266-0.163,0.364-0.232,0.575c0.018-0.09-0.201-0.126-0.212-0.075c-0.051,0.229,0.162,0.887-0.165,1.058
		c-0.15-0.119-0.17,0.015-0.317,0.064c0.018,0.397-0.003,0.913,0.069,1.432c0.021,0.181,0.165,0.348,0.201,0.526
		c0.077,0.438,0.036,0.851,0.294,1.145c0.454,0.119,0.583,0.599,0.862,0.949c0.771,0.939,2.476,1.042,3.542,0.567
		c0.165-0.229,0.353-0.418,0.619-0.552c0.436-0.49,0.72-1.442,0.792-2.079c-0.397-0.526-0.181-1.45-0.593-1.924
		c-0.227-0.139-0.599-0.431-0.617-0.733c-0.059-0.606,0.111-1.589,0.39-1.847c0.366,0.196,0.629,0.48,0.841,0.813
		c-0.052,0.549,0.408,0.384,0.836,0.513c0.273,0.088,0.482,0.392,0.707,0.444c0.542,0.137,1.269-0.323,1.661,0.263
		c-0.036,0.436-0.067,0.614,0.222,0.784c0.299-0.109,0.451-0.372,0.764-0.454c-0.021-0.132,0.077-0.212,0.01-0.426
		c0.134-0.317,0.72-0.397,1.034-0.297c0.142-0.382,0.08-1.001,0.565-1.045c-0.072-0.131,0.01-0.131,0.031-0.26
		c-0.304-0.408,0.047-0.619,0.134-1.05c-0.147-0.034-0.235-0.098-0.284-0.211c0.395,0.008,0.795,0.028,1.199,0.028
		c14.371-0.155,25.912-11.938,25.757-26.301C561.921,1015.596,550.135,1004.055,535.767,1004.209L535.767,1004.209z
		 M507.018,1045.209L507.018,1045.209c0.369,0.162,0.454,0.609,0.867,0.732c1.109,1.604-0.732,2.992-2.538,2.505
		c-0.562-0.162-0.846-0.477-1.228-0.885c-0.242-0.279-0.5-0.727-0.32-1.326c0.077-0.253,0.32-0.423,0.511-0.619
		c0.32-0.341,0.985-0.645,1.651-0.65C506.358,1044.987,506.652,1045.276,507.018,1045.209L507.018,1045.209z M505.532,1046.375
		c0.052-0.085,0.186,0,0.142,0.116C505.555,1046.511,505.607,1046.401,505.532,1046.375L505.532,1046.375L505.532,1046.375z
		 M538.112,1059.291L538.112,1059.291c0.052-0.041,0.026-0.173,0.103-0.188c0.413,0.072,0.733,0.237,1.091,0.351
		c0.457,0.547,0.777,1.037,0.596,2.043c-0.07,0.379-0.34,0.893-0.516,1.171c-0.356,0.452-0.991,0.66-1.519,0.63
		c-0.949-0.031-1.473-0.833-1.556-1.661c-0.106-1.078,0.575-1.953,1.372-2.399C537.911,1059.242,537.952,1059.182,538.112,1059.291
		L538.112,1059.291z M540.139,1063.988L540.139,1063.988c0.075-0.121,0.062,0.111,0.17,0.077c0.093-0.325,0.191-0.65,0.469-0.769
		c0.098-0.015,0.085,0.101,0.181,0.114c0.054-0.382,0.464-0.738,0.875-0.939c0.075-0.557-0.188-0.709,0.271-0.954
		c-0.01,0.067,0.054,0.062,0.103,0.067c0.113,0.243-0.181,0.444-0.124,0.712c0.067,0.32,0.335,0.428,0.743,0.377
		c0.524,0.583,0.903,1.38,0.862,2.247c-0.016,0.738-0.299,1.385-0.714,1.906c-0.268,0.14-0.642,0.17-0.751,0.48
		c-0.748,0.237-1.506,0.057-2.056-0.33c-0.224-0.495-0.57-1.063-0.493-1.785C539.727,1064.744,539.892,1064.238,540.139,1063.988
		L540.139,1063.988z M543.937,1057.689L543.937,1057.689c0.196-0.253,0.516-0.348,0.725-0.596c0.689-0.01,1.297-0.833,1.942-1.101
		c0.168-0.059,0.343-0.018,0.498-0.124c0.121-0.072,0.181-0.222,0.25-0.273c0.343,0.294,0.764,0.588,1.305,0.454
		c0.309-0.077,0.542-0.33,0.9-0.305c0.524,0.366,0.761,0.996,0.918,1.708c-0.446,0.268-0.302,0.867-0.451,1.476
		c-0.064,0.186-0.137,0.348-0.235,0.634c-0.194,0.594-0.488,1.011-0.988,1.326c-0.438-0.036-0.748,0.147-0.972,0.438
		c-0.307-0.041-0.702-0.17-0.957-0.059c-0.072-0.137-0.072-0.286-0.206-0.426c-0.186,0.049-0.186,0.121-0.356,0.17
		c-0.364-0.052-0.681-0.403-1.094-0.462c-0.206-0.034-0.428,0.049-0.601-0.008c-0.323-0.098-0.415-0.371-0.591-0.681
		c-0.857-0.062-0.828-0.923-0.114-1.109c-0.07,0.057,0.052,0.124,0.098,0.17C544.006,1058.54,544.022,1058.277,543.937,1057.689
		L543.937,1057.689z M550.958,1076.891L550.958,1076.891c-0.302-0.155-0.459-0.433-0.784-0.562c-0.01-0.049,0.046-0.054,0.051-0.101
		c-0.302-0.09-0.263-0.493-0.377-0.89c-0.119-0.441-0.095-0.5-0.088-0.929c0.147-0.201,0.248-0.32,0.227-0.65
		c0.211,0.036,0.147-0.428,0.263-0.547c-0.108-0.077,0-0.16-0.106-0.286c-0.178-0.028-0.294,0.049-0.42,0.005
		c-0.021-0.372-0.415-0.433-0.511-0.735c-0.057-0.188-0.062-0.867,0.026-1.171c0.247-0.903,1.171-1.579,2.059-1.303
		c0.103,0.139,0.299,0.199,0.451,0.297c0.271,0.387,0.506,0.815,0.467,1.429c-0.031,0.418-0.098,0.929,0.436,1.027
		c0.356,0.392,0.825,1.13,0.766,1.873c0,0.119-0.036,0.255-0.114,0.356c-0.008,0.013-0.121,0.064-0.144,0.101
		c-0.1,0.237,0.01,0.585-0.049,0.75c-0.062,0.227-0.364,0.32-0.475,0.531c-0.142,0.271-0.32,0.606-0.653,0.684
		C551.652,1076.85,551.216,1076.579,550.958,1076.891L550.958,1076.891z M555.72,1074.791L555.72,1074.791
		c-0.114-0.349-0.271-0.64-0.583-0.751c-1.207-0.369-1.93,1.88-0.691,2.291c0.31-0.101,0.593-0.005,0.851-0.162
		c0.106-0.294,0.294-0.521,0.451-0.766C555.746,1075.152,555.761,1074.92,555.72,1074.791L555.72,1074.791z M560.492,1078.96
		L560.492,1078.96c-0.361,0.103-0.691,0.232-0.823,0.588c-0.044-0.181-0.299-0.121-0.456-0.237c-0.219-0.15-0.227-0.464-0.341-0.604
		c0.041-0.268,0.021-0.635,0.227-0.805c-0.129-0.09,0.183-0.217,0.186-0.387c0.175,0.088,0.325-0.01,0.361-0.17
		c0.106,0.015,0.299-0.036,0.534,0.044c-0.023,0.227,0.526,0.41,0.333,0.828c0.075,0.088,0.041,0.077,0.067,0.207
		C560.466,1078.655,560.477,1078.671,560.492,1078.96L560.492,1078.96z M560.724,1058.39L560.724,1058.39
		c-0.18,0.66-0.619,1.192-1.408,1.099c-1.089-0.469-1.161-2.162-0.155-2.801c0.245,0.139,0.531-0.057,0.777,0.021
		c0.126,0.18,0.361,0.248,0.498,0.433c0.343-0.542,0.483-1.217,1.13-1.517c0.838-0.095,1.176,0.63,1.145,1.429
		C562.654,1058.186,561.854,1059.345,560.724,1058.39L560.724,1058.39z M563.735,1052.818L563.735,1052.818
		c0.16-0.062,0.219-0.01,0.273,0.103c0.114-0.111,0.273-0.005,0.323-0.129c0.201,0.062,0.495,0.217,0.604,0.397
		c0.015,0.036-0.075,0.026-0.072,0.034c0.036,0.276,0.382,1.091-0.036,1.329c0.015,0.307-0.23,0.356-0.397,0.48
		c-0.318-0.057-0.33-0.516-0.702-0.41c0.021-0.059-0.021-0.142-0.021-0.059C563.35,1054.165,563.299,1053.345,563.735,1052.818z"/>
	<path fill-rule="evenodd" clip-rule="evenodd" fill="#009D52" d="M518.339,1000.134c24.795-0.258,44.81-20.68,44.546-45.467
		c-0.253-24.81-20.693-44.807-45.49-44.549c-24.787,0.258-44.799,20.688-44.539,45.488
		C473.117,980.4,493.55,1000.397,518.339,1000.134z"/>
	<path fill-rule="evenodd" clip-rule="evenodd" fill="#FDFDFE" d="M518.306,997.105c23.128-0.242,41.797-19.285,41.552-42.408
		c-0.242-23.126-19.305-41.783-42.429-41.546c-23.113,0.242-41.789,19.3-41.546,42.426
		C476.125,978.703,495.196,997.348,518.306,997.105z"/>
	<path fill-rule="evenodd" clip-rule="evenodd" fill="#E2E5BF" d="M518.265,993.024c20.879-0.214,37.713-17.412,37.496-38.286
		c-0.217-20.874-17.412-37.721-38.291-37.499c-20.866,0.217-37.713,17.414-37.496,38.293
		C480.19,976.404,497.399,993.246,518.265,993.024z"/>
	<path fill-rule="evenodd" clip-rule="evenodd" fill="#009D52" d="M518.213,987.907c18.052-0.186,32.621-15.07,32.43-33.111
		c-0.186-18.067-15.067-32.636-33.119-32.44c-18.059,0.186-32.624,15.06-32.435,33.127
		C485.283,973.523,500.151,988.098,518.213,987.907z"/>
	<path fill-rule="evenodd" clip-rule="evenodd" fill="#FDFDFE" d="M518.172,984.11c15.965-0.173,28.845-13.331,28.674-29.275
		c-0.165-15.962-13.318-28.85-29.283-28.679c-15.965,0.167-28.84,13.329-28.672,29.286
		C489.059,971.387,502.204,984.275,518.172,984.11z"/>
	<path fill-rule="evenodd" clip-rule="evenodd" fill="#BDCF3F" d="M518.1,977.189c12.15-0.127,21.957-10.14,21.828-22.285
		c-0.124-12.16-10.143-21.952-22.293-21.828c-12.134,0.132-21.944,10.13-21.818,22.292
		C495.946,967.507,505.963,977.318,518.1,977.189z"/>
	<path fill-rule="evenodd" clip-rule="evenodd" fill="#009D52" d="M511.161,922.092c-0.021-0.093,0.083-0.031,0.077-0.103
		c-0.031-0.098-0.165-0.026-0.25-0.021c-0.168-0.175-0.101-0.356-0.044-0.596c0.351-0.235,0.986-0.106,1.004,0.284
		c0.013,0.276-0.333,0.415-0.549,0.488C511.432,922.058,511.264,922.143,511.161,922.092L511.161,922.092z M517.676,937.043
		L517.676,937.043c9.993-0.103,18.176,7.914,18.281,17.902c0.103,9.983-7.914,18.173-17.902,18.273
		c-9.98,0.109-18.168-7.914-18.271-17.894c-0.023-2.515,0.454-4.909,1.362-7.091c-0.026,0.015-0.057,0.026-0.08,0.044
		c-0.101,0.436-0.379,0.838-0.421,1.168c-0.103-0.031-0.062-0.046-0.155,0.005c0.114-0.139-0.01-0.258,0.098-0.42
		c-0.064-0.157-0.191-0.26-0.335-0.338c-0.413,0.181-0.671,0.707-1.282,0.513c-0.237-0.317-0.849-0.26-1.05-0.632
		c-0.093-0.005-0.057,0.108-0.155,0.093c0,0.467-0.124,0.81-0.439,0.965c-0.054,0.093-0.15,0.304-0.17,0.436
		c0.046,0.023,0.145,0.093,0.057,0.183c0.036-0.013,0.062-0.023,0.057-0.067c-0.015,0.15-0.01,0.253-0.015,0.547
		c0.129,0.25,0.325,0.408,0.493,0.519c0.008,0.126-0.034,0.335,0.023,0.513c-0.047-0.013-0.049,0.018-0.021,0.018
		c-0.248-0.026-0.578-0.085-0.79-0.302c-0.046-0.312-0.049-0.666-0.335-0.717c-0.165,0.175-0.488,0.217-0.529,0.521
		c-0.297-0.335-0.508-0.774-0.973-0.949c-0.046-0.212-0.175-0.32-0.338-0.428c0.132-0.854-0.328-1.114-0.627-1.527
		c0.077-0.609-0.242-1.104-0.17-1.679c0.016-0.082,0.07-0.137,0.077-0.225c0.034-0.196-0.008-0.407,0.098-0.554
		c0.062-0.106,0.199-0.121,0.273-0.219c0.289-0.335,0.137-1.491,0.059-1.873c-0.116-0.552-0.513-0.89-0.673-1.362
		c-0.072-0.196-0.072-0.73-0.036-1.006c0.057-0.58,0.462-0.82,0.691-1.357c0.243-0.028,0.356-0.273,0.511-0.387
		c0.263-0.196,0.48-0.263,0.627-0.462c0.188-0.271,0.235-0.717,0.518-0.939c0.098-0.09,0.274-0.173,0.4-0.276
		c0.312-0.196,0.658-0.273,1.117-0.392c0.162,0.103,0.284,0.139,0.536,0.227c-0.08,0.08,0.082,0.124,0.072,0.052
		c0.067,0.036,0.083,0.077,0.057,0.155c0.15,0,0.098,0.209,0.258,0.157c0.026-0.023,0.196,0.07,0.278-0.059
		c-0.054,0.157,0.196,0.057,0.183,0.273c0.075-0.01,0.039-0.01,0.119,0c0.008,0.129,0.108,0.14,0.258,0.175
		c0.069,0.217,0.232,0.227,0.307,0.475c0.103,0.062,0.258,0.17,0.214,0.299c0.108-0.062,0.147,0.289,0.25,0.428
		c-0.103,0.072,0.059,0.132-0.044,0.15c0.103,0.082,0.124,0.224,0.111,0.315c-0.005,0.052,0.057-0.041,0.09,0.021
		c0.003,0.09-0.008,0.191-0.054,0.235c0.036,0.028,0.072,0.044,0.139,0.044c-0.057,0.01-0.144,0.088,0,0.075
		c-0.103,0.075,0.026,0.142,0.026,0.255c-0.023-0.005-0.018-0.034-0.026-0.047c0.016,0.472-0.046,0.82,0.059,1.349
		c-0.106,0.178-0.008,0.366-0.214,0.503c-0.083,0.165-0.036,0.315-0.077,0.482c-0.016,0.075-0.124,0.225-0.067,0.281
		c-0.059,0.049-0.062,0.144-0.134,0.129c0.021,0.021,0.036,0.059,0.031,0.101c-0.075,0.049-0.064,0.186-0.101,0.284
		c0.25,0.24,0.441,0.266,0.844,0.358c0.036,0.119-0.036,0.165,0.077,0.155c-0.054,0.413,0.5,0.438,0.655,0.199
		c0.56-0.204,0.903,0.08,1.45,0.008c-0.005-0.237,0.186-0.629,0.016-0.784c-0.062-0.026,0.222,0.057,0.18-0.103
		c-0.056-0.031-0.258-0.072-0.253,0c-0.005-0.098-0.242-0.139-0.374-0.17c-0.018-0.057,0.036-0.057,0.018-0.126
		c-0.01-0.057-0.067,0.028-0.134-0.003c0.047-0.041,0.111-0.052,0.132-0.139c-0.253-0.07-0.56-0.217-0.712-0.464
		c0.075-0.144-0.008-0.312,0.126-0.402c-0.263,0.041-0.413-0.245-0.5-0.292c0.222-0.095,0.206-0.413,0.307-0.622
		c-0.034-0.103-0.137-0.129-0.165-0.242c-0.194-0.003-0.003-0.036-0.132-0.181c0.036-0.005,0.062-0.005,0.085-0.005
		c-0.018-0.521,0.322-0.65,0.451-1.107c0.237-0.005,0.457-0.173,0.629-0.173c0.036-0.067,0.088-0.093,0.121-0.103
		c0.358,0.052,0.534-0.01,0.867,0.093c0.116-0.067,0.284,0.01,0.405-0.047c0.248-0.168,0.072-0.831,0.374-0.947
		c0.088-0.451,0.457-0.49,0.699-0.792c0.139,0,0.134,0.046,0.253,0.015c0.026-0.139-0.067,0.005-0.057-0.093
		c0.049-0.008,0.057,0.018,0.098,0.021c0.268-0.217,0.738-0.072,1.052-0.062c0.17,0.132,0.178,0.242,0.377,0.325
		c0.052,0.101,0.067,0.237,0.204,0.255c0.054,0.258,0.167,0.565,0.186,0.802c-0.085,0.072-0.255,0.346-0.194,0.565
		c-0.124,0.193-0.119,0.395-0.299,0.565c-0.207,0.181-0.609,0.32-0.676,0.653c0.32,0.116,0.555-0.4,0.862-0.402l-0.005-0.005
		c0.052-0.121,0.108-0.147,0.186-0.142c0.568-0.423,1.171-0.81,1.785-1.171c-0.111-0.01-0.232-0.072-0.335-0.15
		c-0.005-0.062,0.036-0.08,0.051-0.134c-0.095-0.01-0.134-0.103-0.232-0.124c-0.173-0.451,0.124-0.717,0.361-0.985
		c0.067-0.057,0.044-0.147,0.062-0.289c0.072-0.082,0.16-0.175,0.165-0.284c0.062-0.379-0.382-0.428-0.565-0.645
		c0.121-0.25,0.193-0.547,0.219-0.882c0.201-0.186,0.366-0.531,0.552-0.774c0.116-0.155,0.263-0.15,0.175-0.374
		c-0.046-0.147-0.217-0.188-0.279-0.358c0.023-0.101,0.297-0.031,0.196,0.067c0.132-0.067,0.175,0.057,0.31,0.026
		c0.083-0.021,0.075-0.062,0.147-0.129c0.101-0.062,0.235-0.072,0.328-0.139c0.245-0.103,0.413-0.242,0.634-0.005
		c0.261-0.044,0.462-0.075,0.48-0.299c0.315,0.057,0.475,0.294,0.769,0.062c0.077,0.021,0.085,0.075,0.173,0.031
		c0.039,0.346,0.488,0.284,0.766,0.366c-0.067,0.224,0.005,0.655,0.232,0.738c0.15-0.041,0.222,0.016,0.304-0.005
		c0.059,0.217,0.253,0.32,0.335,0.526c-0.108,0.227-0.237,0.191-0.554,0.186c-0.405,0.284-0.064,0.81-0.137,1.192
		c-0.031,0.16-0.25,0.315-0.302,0.516c-0.018,0.072-0.026,0.145-0.029,0.227C514.272,937.319,515.948,937.058,517.676,937.043
		L517.676,937.043z M513.095,931.964c-0.072,0.116-0.016,0.142-0.021,0.312c0.335,0.547,0.97,1.019,1.733,0.908
		c0.596-0.083,1.148-0.475,1.145-1.145c0.016-0.382-0.144-0.838-0.485-1.063c-0.196-0.134-0.575-0.31-0.841-0.351
		c-0.725-0.108-1.063,0.139-1.442,0.48c-0.08,0.255-0.181,0.488-0.219,0.789C512.971,931.948,513.07,931.935,513.095,931.964
		L513.095,931.964L513.095,931.964z M516.397,930.411L516.397,930.411c0.188,0.168,0.547,0.266,0.867,0.291
		c0.526,0.039,0.913-0.232,1.269-0.387c0.263-0.392,0.369-0.96,0.188-1.483c-0.225-0.08-0.255-0.345-0.364-0.529
		c-0.382-0.268-0.846-0.469-1.378-0.464c-0.624,0.005-1.182,0.284-1.594,0.673c0.064,0.286-0.021,0.49-0.237,0.55
		c-0.191,0.033-0.353-0.16-0.511-0.088c-0.003,0.047,0,0.093-0.057,0.093c0.186,0.294,0.299,0.119,0.696,0.168
		c0.15,0.281,0.423,0.578,0.686,0.598c0,0.059-0.085,0.049-0.077,0.132c0.101,0.191,0.335,0.253,0.562,0.318
		C516.475,930.347,516.304,930.347,516.397,930.411L516.397,930.411z M511.8,927.839L511.8,927.839
		c-0.17-0.139-0.258-0.348-0.426-0.498c-0.023-0.506-0.627-0.91-0.828-1.362c-0.057-0.116-0.034-0.24-0.098-0.353
		c-0.062-0.08-0.18-0.119-0.212-0.181c0.209-0.253,0.392-0.56,0.297-0.931c-0.064-0.224-0.26-0.384-0.24-0.645
		c0.242-0.379,0.691-0.549,1.189-0.694c0.214,0.328,0.642,0.207,1.06,0.294c0.149,0.036,0.26,0.09,0.459,0.152
		c0.434,0.137,0.743,0.317,0.97,0.676c-0.016,0.312,0.134,0.524,0.351,0.681c-0.031,0.214-0.114,0.498-0.026,0.691
		c-0.095,0.054-0.214,0.041-0.304,0.142c0.041,0.137,0.098,0.134,0.129,0.263c-0.031,0.253-0.263,0.48-0.299,0.779
		c-0.018,0.152,0.041,0.312,0.005,0.428c-0.057,0.245-0.247,0.31-0.472,0.444c-0.008,0.614-0.647,0.619-0.787,0.103
		c0.052,0.057,0.088-0.042,0.124-0.062C512.419,927.777,512.234,927.775,511.8,927.839L511.8,927.839z M525.348,922.386
		L525.348,922.386c-0.103,0.186-0.291,0.323-0.382,0.555c-0.031,0.002-0.031-0.029-0.077-0.023c-0.062,0.206-0.34,0.191-0.619,0.284
		c-0.32,0.095-0.358,0.072-0.66,0.077c-0.155-0.093-0.237-0.162-0.464-0.149c0.01-0.145-0.315-0.077-0.403-0.17
		c-0.052,0.085-0.124,0.008-0.199,0.085c-0.023,0.121,0.039,0.204,0,0.307c-0.255,0.021-0.291,0.292-0.506,0.366
		c-0.124,0.059-0.606,0.075-0.836,0.013c-0.642-0.147-1.15-0.787-0.978-1.421c0.088-0.093,0.132-0.232,0.191-0.345
		c0.271-0.196,0.58-0.377,1.014-0.356c0.307,0,0.66,0.036,0.73-0.351c0.263-0.258,0.795-0.609,1.31-0.583
		c0.085,0,0.191,0.026,0.253,0.072c0.021,0.003,0.06,0.088,0.088,0.093c0.181,0.075,0.405-0.008,0.526,0.023
		c0.165,0.044,0.237,0.255,0.392,0.322c0.199,0.098,0.438,0.232,0.513,0.462C525.302,921.886,525.111,922.198,525.348,922.386
		L525.348,922.386z M523.739,919.007L523.739,919.007c-0.248,0.103-0.47,0.227-0.526,0.441c-0.242,0.88,1.383,1.339,1.646,0.451
		c-0.072-0.227-0.01-0.428-0.119-0.609c-0.232-0.067-0.387-0.204-0.573-0.307C523.994,918.986,523.824,918.981,523.739,919.007
		L523.739,919.007z M526.594,915.519L526.594,915.519c0.085,0.237,0.183,0.49,0.438,0.567c-0.116,0.036-0.082,0.222-0.142,0.34
		c-0.119,0.155-0.335,0.157-0.443,0.255c-0.186-0.028-0.444,0.008-0.578-0.152c-0.07,0.103-0.155-0.124-0.284-0.121
		c0.064-0.121-0.013-0.222-0.132-0.247c0.015-0.085-0.013-0.209,0.023-0.392c0.178,0.003,0.289-0.384,0.58-0.245
		c0.072-0.062,0.075-0.046,0.152-0.067C526.375,915.545,526.39,915.532,526.594,915.519L526.594,915.519z M511.909,915.839
		L511.909,915.839c0.474,0.134,0.869,0.41,0.825,0.991c-0.312,0.774-1.532,0.872-2.002,0.17c0.09-0.17-0.054-0.374-0.008-0.552
		c0.132-0.093,0.188-0.258,0.292-0.369c-0.377-0.23-0.88-0.315-1.086-0.776c-0.101-0.586,0.41-0.846,0.978-0.851
		C511.723,914.457,512.567,915.019,511.909,915.839L511.909,915.839z M507.859,913.832L507.859,913.832
		c-0.041-0.108-0.015-0.173,0.077-0.204c-0.1-0.07-0.021-0.201-0.108-0.227c0.041-0.144,0.144-0.364,0.271-0.441
		c0.028-0.021,0.018,0.059,0.026,0.059c0.188-0.028,0.777-0.302,0.947-0.013c0.217-0.021,0.263,0.147,0.346,0.273
		c-0.018,0.23-0.351,0.248-0.263,0.513c-0.052-0.003-0.098,0.018-0.052,0.026C508.834,914.07,508.254,914.131,507.859,913.832z"/>
	<path fill-rule="evenodd" clip-rule="evenodd" fill="#BC3440" d="M562.746,742.937c-26.017,37.646-44.9-15.266-44.956-35.312
		c-6.944-100.275-70.432-22.527-54.529,45.885c2.763,12.972,5.523,25.932,8.29,38.912c4.904,13.507,9.823,27.023,14.737,40.53
		c4.478,29.962-1.968,42.692-12.676,71.356c-45.271,85.576-53.397,187.487,44.858,220.701
		c53.534,13.599,85.941,19.708,140.947,24.795c109.99,4.948,126.808-84.893,59.211-171.891
		c-31.073-48.692-12.139-66.22,1.463-110.787c26.278-110.328-33.005-148.536-40.233-101.485
		c-7.703,50.115-36.465,63.818-58.378,32.758C600.738,779.93,583.491,761.406,562.746,742.937z"/>
	<path fill-rule="evenodd" clip-rule="evenodd" fill="#FDFDFE" d="M535.628,790.076c7.881,25.259,21.258,36.284,5.995,72.176
		c-56.588,110.781,11.234,105.919,93.733,120.104c15.462,16.819,32.776,29.098,48.243,45.911
		c32.327,35.608,88.438,89.521,50.781,4.334c-31.617-46.499-53.069-80.413-34.107-134.214
		c8.414-38.864,25.122-108.579-7.837-140.348c-1.295,3.327-2.595,6.66-3.895,9.988c-10.69,56.657-32.208,60.462-61.739,50.074
		C580.726,801.864,523.491,731.226,535.628,790.076z"/>
	<path fill-rule="evenodd" clip-rule="evenodd" fill="#BEBEBF" d="M633.602,981.821c20.226-24.844,28.519-35.322,60.016-32.603
		c3.26,8.497,6.537,16.994,9.807,25.484c9.013,14.796,18.023,29.595,27.041,44.381c58.731,108.372-25.796,45.462-73.087-12.062
		C649.448,998.609,641.526,990.213,633.602,981.821z"/>
	<path fill-rule="evenodd" clip-rule="evenodd" fill="#818081" d="M560.239,1106.401l-0.253-29.164
		c-0.031-3.534,2.843-6.457,6.387-6.49l58.84-0.506c3.534-0.036,6.464,2.843,6.485,6.366l0.253,29.18
		c0.031,3.539-2.843,6.464-6.384,6.501l-58.842,0.49C563.19,1112.803,560.265,1109.945,560.239,1106.401z"/>
	<path fill-rule="evenodd" clip-rule="evenodd" fill="#3E353A" d="M550.107,1024.908l-0.387-12.805
		c-0.067-2.373,1.819-4.359,4.189-4.437l77.887-2.311c2.368-0.065,4.367,1.808,4.439,4.194l0.374,12.784
		c0.077,2.373-1.811,4.385-4.179,4.447l-77.887,2.311C552.17,1029.143,550.179,1027.271,550.107,1024.908z"/>
	<path fill-rule="evenodd" clip-rule="evenodd" fill="#4F494E" d="M666.532,972.489c5.943-6.145,15.524-6.56,21.395-0.903
		c5.874,5.652,5.814,15.243-0.132,21.413c-5.943,6.165-15.521,6.562-21.384,0.918C660.532,988.255,660.589,978.674,666.532,972.489z
		"/>
	<path fill-rule="evenodd" clip-rule="evenodd" fill="#4F494E" d="M691.281,1007.279c4.87-5.064,12.738-5.396,17.562-0.743
		c4.824,4.648,4.783,12.519-0.098,17.572c-4.883,5.076-12.753,5.401-17.577,0.738
		C686.354,1020.215,686.398,1012.353,691.281,1007.279z"/>
	<path fill-rule="evenodd" clip-rule="evenodd" fill="#4F494E" d="M720.218,1045.962c3.083-3.199,8.022-3.41,11.061-0.472
		c3.039,2.922,3.013,7.875-0.057,11.079c-3.088,3.188-8.033,3.382-11.077,0.464C717.117,1054.108,717.138,1049.161,720.218,1045.962
		z"/>
	<path fill-rule="evenodd" clip-rule="evenodd" fill="#3E353A" d="M561.906,253.278c0.779,190.4-1.893,383.226-1.125,573.649
		c24.372,11.27,38.1,9.111,60.599-2.296c-8.373-190.856-16.733-381.716-25.107-572.572
		C583.669,253.264,574.507,252.07,561.906,253.278z"/>
	<path fill-rule="evenodd" clip-rule="evenodd" fill="#F5BF2A" d="M593.938,252.093c1.231-7.592,1.811-18.099,3.029-25.705
		c45.983-23.974,17.84-59.01,0.851-112.52c67.081-51.707-25.971-98.285-39.875-28.694c-9.157,45.773-18.722,91.478-28.081,137.213
		c0.323,17.791,5.427,21.761,21.978,22.324c2.961,2.859,5.931,5.732,8.902,8.583C571.6,251.925,583.091,253.468,593.938,252.093z"/>
	<path fill-rule="evenodd" clip-rule="evenodd" fill="#CCCAC9" d="M504.191,197.637c5.68-5.892,14.677-6.451,20.084-1.245
		c1.313,1.265,2.518,4.392,3.168,6.023c0.395,0.966,5.36,1.919,5.505,2.959c0.25,1.661-0.366,2.871-0.732,4.563
		c-0.186,0.841-4.803,0.689-5.139,1.512c-0.738,1.821-1.837,3.542-3.307,5.069c-5.685,5.893-13.79,5.525-19.197,0.321
		C499.155,211.622,498.5,203.54,504.191,197.637z"/>
	<path fill-rule="evenodd" clip-rule="evenodd" fill="#CCCAC9" d="M513.276,154.624c5.874-5.708,14.879-5.977,20.126-0.593
		c1.269,1.313,2.358,4.478,2.961,6.119c0.361,0.985,5.309,2.095,5.412,3.138c0.196,1.665-0.464,2.854-0.887,4.538
		c-0.199,0.836-4.816,0.531-5.18,1.346c-0.802,1.78-1.958,3.472-3.462,4.957c-5.881,5.698-13.966,5.086-19.207-0.294
		C507.802,168.441,507.402,160.345,513.276,154.624z"/>
	<path fill-rule="evenodd" clip-rule="evenodd" fill="#CCCAC9" d="M522.82,109.33c6.222-5.343,15.23-5.061,20.121,0.637
		c1.197,1.396,2.095,4.607,2.595,6.295c0.292,1.003,5.164,2.419,5.216,3.453c0.077,1.684-0.645,2.828-1.166,4.482
		c-0.263,0.829-4.852,0.231-5.267,1.025c-0.9,1.736-2.164,3.361-3.761,4.735c-6.212,5.344-14.244,4.214-19.153-1.474
		C516.511,122.782,516.619,114.659,522.82,109.33z"/>
	<path fill-rule="evenodd" clip-rule="evenodd" fill="#CCCAC9" d="M531.622,67.012c6.207-5.342,15.217-5.048,20.11,0.645
		c1.189,1.388,2.089,4.617,2.582,6.302c0.302,0.992,5.172,2.394,5.218,3.457c0.088,1.674-0.639,2.822-1.166,4.481
		c-0.263,0.823-4.849,0.226-5.262,1.017c-0.9,1.74-2.162,3.348-3.761,4.734c-6.209,5.338-14.262,4.218-19.151-1.474
		C525.302,80.48,525.395,72.366,531.622,67.012z"/>
	
		<polygon fill-rule="evenodd" clip-rule="evenodd" fill="#FDFDFE" stroke="#3E353A" stroke-width="0.2163" stroke-miterlimit="2.6131" points="
		576.026,372.055 580.881,367.024 584.75,370.747 579.901,375.794 	"/>
	
		<polygon fill-rule="evenodd" clip-rule="evenodd" fill="#FDFDFE" stroke="#3E353A" stroke-width="0.2163" stroke-miterlimit="2.6131" points="
		578.57,448.415 583.053,443.761 586.148,446.759 581.668,451.403 	"/>
	
		<polygon fill-rule="evenodd" clip-rule="evenodd" fill="#FDFDFE" stroke="#3E353A" stroke-width="0.2163" stroke-miterlimit="2.6131" points="
		578.704,517.215 584.286,511.409 588.16,515.131 582.57,520.94 	"/>
	
		<polygon fill-rule="evenodd" clip-rule="evenodd" fill="#FDFDFE" stroke="#3E353A" stroke-width="0.2163" stroke-miterlimit="2.6131" points="
		580.2,578.385 585.055,573.359 589.308,577.458 584.459,582.483 	"/>
	
		<polygon fill-rule="evenodd" clip-rule="evenodd" fill="#FDFDFE" stroke="#3E353A" stroke-width="0.2163" stroke-miterlimit="2.6131" points="
		569.531,659.173 574.375,654.141 578.247,657.861 573.392,662.898 	"/>
	
		<polygon fill-rule="evenodd" clip-rule="evenodd" fill="#FDFDFE" stroke="#3E353A" stroke-width="0.2163" stroke-miterlimit="2.6131" points="
		596.11,657.925 600.591,653.274 605.227,657.752 600.749,662.388 	"/>
	
		<polygon fill-rule="evenodd" clip-rule="evenodd" fill="#FDFDFE" stroke="#3E353A" stroke-width="0.2163" stroke-miterlimit="2.6131" points="
		584.807,725.416 589.295,720.771 593.159,724.493 588.671,729.136 	"/>
	
		<polygon fill-rule="evenodd" clip-rule="evenodd" fill="#FDFDFE" stroke="#3E353A" stroke-width="0.2163" stroke-miterlimit="2.6131" points="
		586.282,764.156 590.76,759.51 593.846,762.49 589.373,767.138 	"/>
	
		<polygon fill-rule="evenodd" clip-rule="evenodd" fill="#FDFDFE" stroke="#3E353A" stroke-width="0.2163" stroke-miterlimit="2.6131" points="
		585.779,798.758 590.99,793.323 596.41,798.552 591.191,803.969 	"/>
	<polygon fill-rule="evenodd" clip-rule="evenodd" fill="#E4E2E2" points="564.274,221.826 566.554,1082.483 569.902,1083.35 
		564.991,220.964 	"/>
	<polygon fill-rule="evenodd" clip-rule="evenodd" fill="#BEBEBF" points="570.506,183.589 584.214,1084.748 587.565,1085.63 
		571.215,182.718 	"/>
	<polygon fill-rule="evenodd" clip-rule="evenodd" fill="#BEBEBF" points="580.355,135.062 603.674,1084.413 607.024,1085.274 
		581.067,134.202 	"/>
	<polygon fill-rule="evenodd" clip-rule="evenodd" fill="#E4E2E2" points="587.283,92.308 620.472,1084.771 623.82,1085.63 
		588,91.434 	"/>
	<path fill-rule="evenodd" clip-rule="evenodd" fill="#1A1414" d="M569.113,1089.815c-2.224-0.005-4.045,1.803-4.065,4.014
		l-0.059,8.863c-0.013,2.229,1.787,4.055,4.021,4.081c2.208,0.016,4.042-1.785,4.06-4.029l0.067-8.858
		C573.145,1091.659,571.336,1089.838,569.113,1089.815z"/>
	<path fill-rule="evenodd" clip-rule="evenodd" fill="#1A1414" d="M584.807,1089.876c-2.234-0.031-4.055,1.775-4.076,3.993
		l-0.057,8.861c-0.011,2.237,1.785,4.063,4.008,4.078c2.232,0.015,4.07-1.79,4.07-4.014l0.067-8.858
		C588.841,1091.703,587.03,1089.892,584.807,1089.876z"/>
	<path fill-rule="evenodd" clip-rule="evenodd" fill="#1A1414" d="M603.818,1089.18c-2.221-0.015-4.058,1.79-4.076,4.014
		l-0.054,8.863c-0.016,2.213,1.788,4.045,4.011,4.071c2.226,0.005,4.065-1.78,4.076-4.014l0.059-8.869
		C607.853,1091.027,606.044,1089.201,603.818,1089.18z"/>
	<path fill-rule="evenodd" clip-rule="evenodd" fill="#1A1414" d="M620.503,1088.875c-2.224-0.026-4.058,1.785-4.068,4.024
		l-0.064,8.845c-0.015,2.216,1.798,4.063,4.019,4.083c2.219,0.005,4.055-1.801,4.06-4.024l0.067-8.858
		C624.537,1090.712,622.729,1088.891,620.503,1088.875z"/>
	<path fill-rule="evenodd" clip-rule="evenodd" fill="#514B4E" d="M571.055,130.294c2.502-2.602,6.364-2.928,8.634-0.743
		c2.267,2.185,2.074,6.064-0.418,8.652c-2.505,2.586-6.361,2.92-8.631,0.724C568.36,136.756,568.561,132.88,571.055,130.294z"/>
	<path fill-rule="evenodd" clip-rule="evenodd" fill="#514B4E" d="M561.06,178.131c2.502-2.595,6.364-2.93,8.642-0.738
		c2.265,2.185,2.074,6.062-0.415,8.648c-2.494,2.598-6.371,2.928-8.636,0.742C558.382,184.595,558.568,180.727,561.06,178.131z"/>
	<path fill-rule="evenodd" clip-rule="evenodd" fill="#514B4E" d="M578.631,87.566c2.505-2.582,6.366-2.914,8.631-0.736
		c2.265,2.189,2.082,6.065-0.415,8.661c-2.495,2.587-6.364,2.917-8.626,0.735C575.943,94.039,576.134,90.156,578.631,87.566z"/>
	<path fill-rule="evenodd" clip-rule="evenodd" fill="#514B4E" d="M554.446,218.777c2.492-2.582,6.359-2.917,8.621-0.734
		c2.275,2.191,2.074,6.058-0.413,8.65c-2.497,2.6-6.366,2.932-8.626,0.734C551.747,225.244,551.941,221.372,554.446,218.777z"/>
	<path fill-rule="evenodd" clip-rule="evenodd" fill="#3E353A" d="M552.609,939.158l-0.382-12.794
		c-0.069-2.373,1.819-4.37,4.189-4.437l77.871-2.296c2.376-0.093,4.38,1.795,4.458,4.166l0.372,12.792
		c0.072,2.378-1.811,4.385-4.184,4.447l-77.887,2.311C554.67,943.425,552.679,941.526,552.609,939.158z"/>
	<path fill-rule="evenodd" clip-rule="evenodd" fill="#B2B2B2" d="M561.823,1013.509c2.482-2.582,6.506-2.742,8.959-0.384
		c2.453,2.37,2.422,6.392-0.064,8.972c-2.487,2.572-6.498,2.75-8.953,0.392C559.305,1020.112,559.326,1016.096,561.823,1013.509z"/>
	<path fill-rule="evenodd" clip-rule="evenodd" fill="#B2B2B2" d="M581.65,1014.321c2.487-2.585,6.5-2.755,8.951-0.387
		c2.468,2.363,2.445,6.377-0.049,8.972c-2.476,2.582-6.493,2.75-8.953,0.364C579.142,1020.909,579.163,1016.893,581.65,1014.321z"/>
	<path fill-rule="evenodd" clip-rule="evenodd" fill="#B2B2B2" d="M599.704,1013.398c2.499-2.569,6.5-2.75,8.969-0.377
		c2.445,2.368,2.432,6.377-0.067,8.959c-2.479,2.593-6.49,2.758-8.954,0.377C597.199,1019.996,597.22,1015.993,599.704,1013.398z"/>
	<path fill-rule="evenodd" clip-rule="evenodd" fill="#B2B2B2" d="M619.523,1013.047c2.481-2.585,6.498-2.763,8.953-0.387
		c2.461,2.36,2.438,6.382-0.059,8.956c-2.479,2.585-6.49,2.76-8.946,0.377C617.02,1019.635,617.036,1015.626,619.523,1013.047z"/>
	<path fill-rule="evenodd" clip-rule="evenodd" fill="#B2B2B2" d="M562.556,927.22c2.502-2.574,6.506-2.745,8.961-0.374
		c2.461,2.365,2.438,6.379-0.052,8.959c-2.487,2.574-6.498,2.75-8.951,0.377C560.048,933.818,560.077,929.805,562.556,927.22z"/>
	<path fill-rule="evenodd" clip-rule="evenodd" fill="#B2B2B2" d="M580.045,926.9c2.487-2.574,6.5-2.745,8.961-0.382
		c2.453,2.368,2.43,6.387-0.062,8.966c-2.479,2.574-6.495,2.755-8.951,0.384C577.533,933.509,577.558,929.488,580.045,926.9z"/>
	<path fill-rule="evenodd" clip-rule="evenodd" fill="#B2B2B2" d="M598.117,927.156c2.494-2.585,6.5-2.745,8.956-0.379
		c2.466,2.368,2.44,6.382-0.047,8.961c-2.494,2.585-6.495,2.76-8.956,0.384C595.61,933.746,595.638,929.738,598.117,927.156z"/>
	<path fill-rule="evenodd" clip-rule="evenodd" fill="#B2B2B2" d="M615.581,925.672c2.487-2.587,6.5-2.76,8.953-0.4
		c2.461,2.381,2.438,6.392-0.049,8.969c-2.492,2.585-6.493,2.75-8.951,0.397C613.076,932.255,613.097,928.252,615.581,925.672z"/>
	<polygon fill-rule="evenodd" clip-rule="evenodd" fill="#CCCAC9" points="565.806,1073.197 624.277,1072.32 624.462,1085.047 
		565.997,1085.927 	"/>
</g>
</svg>
